<svg intro-svg xmlns="http://www.w3.org/2000/svg" version="1.1" width="100%" height="100%" xmlns:xlink="http://www.w3.org/1999/xlink"><line id="SvgjsLine1034" x1="1205.3967891693117" y1="41.39139976501465" x2="853.808890542414" y2="357.05098213062604" stroke-dasharray="1,5" stroke-linecap="round" stroke="#ffffff" stroke-width="2" class="spoke-line"></line><g id="SvgjsG1005" transform="scale(0.7 0.7) translate(1684.29341343471 21.42857142857143)" class="svg-logo"><g id="SvgjsG1006" class="logo-stroke"><path id="SvgjsPath1007" d="M103.308,21.457v5.49h-7.245v26.999h-6.21V26.947h-7.245v-5.49
H103.308z" style="fill: none; stroke: rgb(255, 255, 255); stroke-miterlimit: 10;"></path><path id="SvgjsPath1008" d="M105.199,53.945V21.457h6.21v12.959h8.774V21.457h6.21v32.488
h-6.21V39.906h-8.774v14.039H105.199z" style="fill: none; stroke: rgb(255, 255, 255); stroke-miterlimit: 10;"></path><path id="SvgjsPath1009" d="M130.174,53.945V21.457h17.009v5.49h-10.799v7.47h8.234v5.49
h-8.234v8.55h11.249v5.489H130.174z" style="fill: none; stroke: rgb(255, 255, 255); stroke-miterlimit: 10;"></path><path id="SvgjsPath1010" d="M168.694,44.316c0,3.6,1.574,4.59,4.05,4.59
c2.475,0,4.05-0.99,4.05-4.59v-2.16h6.21v1.35c0,8.01-4.23,10.89-10.26,10.89c-6.03,0-10.26-2.88-10.26-10.89V31.896
c0-8.009,4.229-10.889,10.26-10.889c6.029,0,10.26,2.88,10.26,10.889v0.09h-6.21v-0.9c0-3.6-1.575-4.59-4.05-4.59
c-2.476,0-4.05,0.99-4.05,4.59V44.316z" style="fill: none; stroke: rgb(255, 255, 255); stroke-miterlimit: 10;"></path><path id="SvgjsPath1011" d="M188.044,53.945V21.457h17.009v5.49h-10.799v7.47h8.234v5.49
h-8.234v8.55h11.249v5.489H188.044z" style="fill: none; stroke: rgb(255, 255, 255); stroke-miterlimit: 10;"></path><path id="SvgjsPath1012" d="M210.903,53.945V21.457h6.795l8.64,19.259h0.09V21.457h5.67
v32.488h-5.939l-9.495-20.969h-0.09v20.969H210.903z" style="fill: none; stroke: rgb(255, 255, 255); stroke-miterlimit: 10;"></path><path id="SvgjsPath1013" d="M256.848,21.457v5.49h-7.245v26.999h-6.21V26.947h-7.244v-5.49
H256.848z" style="fill: none; stroke: rgb(255, 255, 255); stroke-miterlimit: 10;"></path><path id="SvgjsPath1014" d="M260.539,53.945V21.457h17.009v5.49h-10.799v7.47h8.234v5.49
h-8.234v8.55h11.249v5.489H260.539z" style="fill: none; stroke: rgb(255, 255, 255); stroke-miterlimit: 10;"></path><path id="SvgjsPath1015" d="M297.618,53.945l-5.399-13.229h-2.97v13.229h-6.21V21.457h8.999
c7.47,0,11.025,3.6,11.025,9.72c0,4.05-1.44,6.975-4.905,8.279l6.12,14.489H297.618z M289.249,35.586h3.194
c2.745,0,4.41-1.35,4.41-4.5s-1.665-4.5-4.41-4.5h-3.194V35.586z" style="fill: none; stroke: rgb(255, 255, 255); stroke-miterlimit: 10;"></path></g><g id="SvgjsG1016" class="logo-fill"><path id="SvgjsPath1017" d="M103.308,21.457v5.49h-7.245v26.999h-6.21V26.947h-7.245v-5.49H103.308z" style="fill: rgb(241, 242, 242);"></path><path id="SvgjsPath1018" d="M105.199,53.945V21.457h6.21v12.959h8.774V21.457h6.21v32.488h-6.21V39.906h-8.774v14.039H105.199z" style="fill: rgb(241, 242, 242);"></path><path id="SvgjsPath1019" d="M130.174,53.945V21.457h17.009v5.49h-10.799v7.47h8.234v5.49h-8.234v8.55h11.249v5.489H130.174z" style="fill: rgb(241, 242, 242);"></path><path id="SvgjsPath1020" d="M168.694,44.317c0,3.6,1.574,4.59,4.05,4.59c2.475,0,4.05-0.99,4.05-4.59v-2.16h6.21v1.35
c0,8.01-4.23,10.89-10.26,10.89c-6.03,0-10.26-2.88-10.26-10.89V31.897c0-8.009,4.229-10.889,10.26-10.889
c6.029,0,10.26,2.88,10.26,10.889v0.09h-6.21v-0.9c0-3.6-1.575-4.59-4.05-4.59c-2.476,0-4.05,0.99-4.05,4.59V44.317z" style="fill: rgb(241, 242, 242);"></path><path id="SvgjsPath1021" d="M188.044,53.945V21.457h17.009v5.49h-10.799v7.47h8.234v5.49h-8.234v8.55h11.249v5.489H188.044z" style="fill: rgb(241, 242, 242);"></path><path id="SvgjsPath1022" d="M210.903,53.945V21.457h6.795l8.64,19.259h0.09V21.457h5.67v32.488h-5.939l-9.495-20.969h-0.09
v20.969H210.903z" style="fill: rgb(241, 242, 242);"></path><path id="SvgjsPath1023" d="M256.848,21.457v5.49h-7.245v26.999h-6.21V26.947h-7.244v-5.49H256.848z" style="fill: rgb(241, 242, 242);"></path><path id="SvgjsPath1024" d="M260.539,53.945V21.457h17.009v5.49h-10.799v7.47h8.234v5.49h-8.234v8.55h11.249v5.489H260.539z" style="fill: rgb(241, 242, 242);"></path><path id="SvgjsPath1025" d="M297.618,53.945l-5.399-13.229h-2.97v13.229h-6.21V21.457h8.999c7.47,0,11.025,3.6,11.025,9.72
c0,4.05-1.44,6.975-4.905,8.279l6.12,14.489H297.618z M289.249,35.587h3.194c2.745,0,4.41-1.35,4.41-4.5s-1.665-4.5-4.41-4.5
h-3.194V35.587z" style="fill: rgb(241, 242, 242);"></path></g><ellipse id="SvgjsEllipse1026" rx="37.702" ry="37.702" cx="37.702" cy="37.702" style="fill: rgb(111, 184, 68);"></ellipse></g><g id="SvgjsG1027" class="tag-line" transform="translate(703.5 492)"><ellipse id="SvgjsEllipse1028" rx="200" ry="200" cx="0" cy="0" fill="rgba(208,7,121,0.7)"></ellipse><text id="SvgjsText1029" font-family="inherit" transform="translate(-120 -90)"><tspan id="SvgjsTspan1030" fill="#ffffff" dy="0" x="0">we are a</tspan><tspan id="SvgjsTspan1031" fill="#ffffff" dy="130" x="-7">hub</tspan><tspan id="SvgjsTspan1032" fill="#ffffff" dy="40" x="0">for the artistic, cultural and</tspan><tspan id="SvgjsTspan1033" fill="#ffffff" dy="35" x="0">creative activity in jackson hole</tspan></text></g><line id="SvgjsLine1035" x1="703.5" y1="696" x2="703.5" y2="982" stroke-dasharray="1,5" stroke-linecap="round" stroke="#ffffff" stroke-width="2" class="down-line"></line><defs id="SvgjsDefs1000"></defs></svg>