<svg class="svg-logo-loader" x="0px" y="0px" width="305.032px" height="75.403px" viewBox="0 0 305.032 75.403">

<g class="logo-stroke">
<path style="fill:none;stroke:#ffffff;stroke-miterlimit:10;" d="M103.308,21.457v5.49h-7.245v26.999h-6.21V26.947h-7.245v-5.49
H103.308z"/>
<path style="fill:none;stroke:#ffffff;stroke-miterlimit:10;" d="M105.199,53.945V21.457h6.21v12.959h8.774V21.457h6.21v32.488
h-6.21V39.906h-8.774v14.039H105.199z"/>
<path style="fill:none;stroke:#ffffff;stroke-miterlimit:10;" d="M130.174,53.945V21.457h17.009v5.49h-10.799v7.47h8.234v5.49
h-8.234v8.55h11.249v5.489H130.174z"/>
<path style="fill:none;stroke:#ffffff;stroke-miterlimit:10;" d="M168.694,44.316c0,3.6,1.574,4.59,4.05,4.59
c2.475,0,4.05-0.99,4.05-4.59v-2.16h6.21v1.35c0,8.01-4.23,10.89-10.26,10.89c-6.03,0-10.26-2.88-10.26-10.89V31.896
c0-8.009,4.229-10.889,10.26-10.889c6.029,0,10.26,2.88,10.26,10.889v0.09h-6.21v-0.9c0-3.6-1.575-4.59-4.05-4.59
c-2.476,0-4.05,0.99-4.05,4.59V44.316z"/>
<path style="fill:none;stroke:#ffffff;stroke-miterlimit:10;" d="M188.044,53.945V21.457h17.009v5.49h-10.799v7.47h8.234v5.49
h-8.234v8.55h11.249v5.489H188.044z"/>
<path style="fill:none;stroke:#ffffff;stroke-miterlimit:10;" d="M210.903,53.945V21.457h6.795l8.64,19.259h0.09V21.457h5.67
v32.488h-5.939l-9.495-20.969h-0.09v20.969H210.903z"/>
<path style="fill:none;stroke:#ffffff;stroke-miterlimit:10;" d="M256.848,21.457v5.49h-7.245v26.999h-6.21V26.947h-7.244v-5.49
H256.848z"/>
<path style="fill:none;stroke:#ffffff;stroke-miterlimit:10;" d="M260.539,53.945V21.457h17.009v5.49h-10.799v7.47h8.234v5.49
h-8.234v8.55h11.249v5.489H260.539z"/>
<path style="fill:none;stroke:#ffffff;stroke-miterlimit:10;" d="M297.618,53.945l-5.399-13.229h-2.97v13.229h-6.21V21.457h8.999
c7.47,0,11.025,3.6,11.025,9.72c0,4.05-1.44,6.975-4.905,8.279l6.12,14.489H297.618z M289.249,35.586h3.194
c2.745,0,4.41-1.35,4.41-4.5s-1.665-4.5-4.41-4.5h-3.194V35.586z"/>
</g>

<circle class="logo-circle-hub" style="fill:#6FB844;" cx="37.702" cy="37.702" r="37.702"/>
</svg>
