<?xml version="1.0" encoding="utf-8"?>
<!-- Generator: Adobe Illustrator 18.1.1, SVG Export Plug-In . SVG Version: 6.00 Build 0)  -->
<!DOCTYPE svg PUBLIC "-//W3C//DTD SVG 1.1//EN" "http://www.w3.org/Graphics/SVG/1.1/DTD/svg11.dtd">
<svg version="1.1" id="Layer_1" xmlns="http://www.w3.org/2000/svg" xmlns:xlink="http://www.w3.org/1999/xlink" x="0px" y="0px"
	 width="244px" height="81.3px" viewBox="-267 431.3 244 81.3" enable-background="new -267 431.3 244 81.3" xml:space="preserve">
<g>
	<path fill="#F1F2F2" d="M-158.5,461.1v3.7h-4.9v18.1h-4.2v-18.1h-4.9v-3.7H-158.5z"/>
	<path fill="#F1F2F2" d="M-157.2,482.9v-21.8h4.2v8.7h5.9v-8.7h4.2v21.8h-4.2v-9.4h-5.9v9.4H-157.2z"/>
	<path fill="#F1F2F2" d="M-140.4,482.9v-21.8h11.5v3.7h-7.3v5h5.6v3.7h-5.6v5.7h7.6v3.7L-140.4,482.9L-140.4,482.9z"/>
	<path fill="#F1F2F2" d="M-114.4,476.4c0,2.4,1.1,3.1,2.7,3.1c1.7,0,2.7-0.7,2.7-3.1V475h4.2v0.9c0,5.4-2.9,7.3-6.9,7.3
		c-4.1,0-6.9-1.9-6.9-7.3v-7.8c0-5.4,2.9-7.3,6.9-7.3c4.1,0,6.9,1.9,6.9,7.3v0.1h-4.2v-0.6c0-2.4-1.1-3.1-2.7-3.1
		c-1.7,0-2.7,0.7-2.7,3.1V476.4z"/>
	<path fill="#F1F2F2" d="M-101.4,482.9v-21.8h11.5v3.7h-7.3v5h5.6v3.7h-5.6v5.7h7.6v3.7L-101.4,482.9L-101.4,482.9z"/>
	<path fill="#F1F2F2" d="M-86,482.9v-21.8h4.6l5.8,12.9h0.1v-12.9h3.8v21.8h-4l-6.4-14.1h-0.1v14.1H-86z"/>
	<path fill="#F1F2F2" d="M-55,461.1v3.7h-4.9v18.1h-4.2v-18.1h-4.9v-3.7H-55z"/>
	<path fill="#F1F2F2" d="M-52.5,482.9v-21.8H-41v3.7h-7.3v5h5.6v3.7h-5.6v5.7h7.6v3.7L-52.5,482.9L-52.5,482.9z"/>
	<path fill="#F1F2F2" d="M-27.5,482.9l-3.6-8.9h-2v8.9h-4.2v-21.8h6.1c5,0,7.4,2.4,7.4,6.5c0,2.7-1,4.7-3.3,5.6l4.1,9.7H-27.5z
		 M-33.1,470.6h2.2c1.9,0,3-0.9,3-3s-1.1-3-3-3h-2.2V470.6z"/>
</g>
<ellipse fill="#6FB844" cx="-226.1" cy="472" rx="40.9" ry="40.7"/>
</svg>
