<svg version="1.1" id="Layer_1" xmlns="http://www.w3.org/2000/svg" xmlns:xlink="http://www.w3.org/1999/xlink" x="0px" y="0px"
      	 width="361.938px" height="121.321px" viewBox="0 0 361.938 121.321" style="enable-background:new 0 0 361.938 121.321;"
      	 xml:space="preserve">
      <g>
      	<path style="fill:#F1F2F2;" d="M160.969,44.416v5.49h-7.245v26.999h-6.21V49.906h-7.245v-5.49H160.969z"/>
      	<path style="fill:#F1F2F2;" d="M162.859,76.904V44.416h6.21v12.959h8.774V44.416h6.21v32.488h-6.21V62.865h-8.774v14.039H162.859z"
      		/>
      	<path style="fill:#F1F2F2;" d="M187.835,76.904V44.416h17.009v5.49h-10.799v7.47h8.234v5.49h-8.234v8.55h11.249v5.489H187.835z"/>
      	<path style="fill:#F1F2F2;" d="M226.354,67.275c0,3.6,1.574,4.59,4.05,4.59c2.475,0,4.05-0.99,4.05-4.59v-2.16h6.21v1.35
      		c0,8.01-4.23,10.89-10.26,10.89c-6.03,0-10.26-2.88-10.26-10.89V54.856c0-8.009,4.229-10.889,10.26-10.889
      		c6.029,0,10.26,2.88,10.26,10.889v0.09h-6.21v-0.9c0-3.6-1.575-4.59-4.05-4.59c-2.476,0-4.05,0.99-4.05,4.59V67.275z"/>
      	<path style="fill:#F1F2F2;" d="M245.704,76.904V44.416h17.009v5.49h-10.799v7.47h8.234v5.49h-8.234v8.55h11.249v5.489H245.704z"/>
      	<path style="fill:#F1F2F2;" d="M268.563,76.904V44.416h6.795l8.64,19.259h0.09V44.416h5.67v32.488h-5.939l-9.495-20.969h-0.09
      		v20.969H268.563z"/>
      	<path style="fill:#F1F2F2;" d="M314.509,44.416v5.49h-7.245v26.999h-6.21V49.906h-7.244v-5.49H314.509z"/>
      	<path style="fill:#F1F2F2;" d="M318.199,76.904V44.416h17.009v5.49h-10.799v7.47h8.234v5.49h-8.234v8.55h11.249v5.489H318.199z"/>
      	<path style="fill:#F1F2F2;" d="M355.278,76.904l-5.399-13.229h-2.97v13.229h-6.21V44.416h8.999c7.47,0,11.025,3.6,11.025,9.72
      		c0,4.05-1.44,6.975-4.905,8.279l6.12,14.489H355.278z M346.909,58.546h3.194c2.745,0,4.41-1.35,4.41-4.5s-1.665-4.5-4.41-4.5
      		h-3.194V58.546z"/>
      </g>
      <circle style="fill:#6FB844;" cx="60.66" cy="60.66" r="60.66"/>
      <g>
      	<path style="fill:none;stroke:#000000;stroke-miterlimit:10;" d="M160.969,44.416v5.49h-7.245v26.999h-6.21V49.906h-7.245v-5.49
      		H160.969z"/>
      	<path style="fill:none;stroke:#000000;stroke-miterlimit:10;" d="M162.859,76.904V44.416h6.21v12.959h8.774V44.416h6.21v32.488
      		h-6.21V62.865h-8.774v14.039H162.859z"/>
      	<path style="fill:none;stroke:#000000;stroke-miterlimit:10;" d="M187.835,76.904V44.416h17.009v5.49h-10.799v7.47h8.234v5.49
      		h-8.234v8.55h11.249v5.489H187.835z"/>
      	<path style="fill:none;stroke:#000000;stroke-miterlimit:10;" d="M226.354,67.275c0,3.6,1.574,4.59,4.05,4.59
      		c2.475,0,4.05-0.99,4.05-4.59v-2.16h6.21v1.35c0,8.01-4.23,10.89-10.26,10.89c-6.03,0-10.26-2.88-10.26-10.89V54.855
      		c0-8.009,4.229-10.889,10.26-10.889c6.029,0,10.26,2.88,10.26,10.889v0.09h-6.21v-0.9c0-3.6-1.575-4.59-4.05-4.59
      		c-2.476,0-4.05,0.99-4.05,4.59V67.275z"/>
      	<path style="fill:none;stroke:#000000;stroke-miterlimit:10;" d="M245.704,76.904V44.416h17.009v5.49h-10.799v7.47h8.234v5.49
      		h-8.234v8.55h11.249v5.489H245.704z"/>
      	<path style="fill:none;stroke:#000000;stroke-miterlimit:10;" d="M268.563,76.904V44.416h6.795l8.64,19.259h0.09V44.416h5.67
      		v32.488h-5.939l-9.495-20.969h-0.09v20.969H268.563z"/>
      	<path style="fill:none;stroke:#000000;stroke-miterlimit:10;" d="M314.509,44.416v5.49h-7.245v26.999h-6.21V49.906h-7.244v-5.49
      		H314.509z"/>
      	<path style="fill:none;stroke:#000000;stroke-miterlimit:10;" d="M318.199,76.904V44.416h17.009v5.49h-10.799v7.47h8.234v5.49
      		h-8.234v8.55h11.249v5.489H318.199z"/>
      	<path style="fill:none;stroke:#000000;stroke-miterlimit:10;" d="M355.278,76.904l-5.399-13.229h-2.97v13.229h-6.21V44.416h8.999
      		c7.47,0,11.025,3.6,11.025,9.72c0,4.05-1.44,6.975-4.905,8.279l6.12,14.489H355.278z M346.909,58.545h3.194
      		c2.745,0,4.41-1.35,4.41-4.5s-1.665-4.5-4.41-4.5h-3.194V58.545z"/>
      </g>
      </svg>
